<?xml version="1.0" encoding="utf-8"?>
<!-- Generator: Adobe Illustrator 21.1.0, SVG Export Plug-In . SVG Version: 6.00 Build 0)  -->
<svg version="1.1" id="Layer_1" xmlns="http://www.w3.org/2000/svg" xmlns:xlink="http://www.w3.org/1999/xlink" x="0px" y="0px"
	 viewBox="0 0 7.3 7.8" style="enable-background:new 0 0 7.3 7.8;" xml:space="preserve">
<style type="text/css">
	.st0{fill:#FF3C00;}
</style>
<g>
	<path class="st0" d="M7.1,6.7L5.5,5.1c0.5-0.5,0.7-1.2,0.7-2C6.2,1.4,4.8,0,3.1,0C1.4,0,0,1.4,0,3.1c0,1.7,1.4,3.1,3.1,3.1
		c0.5,0,1-0.1,1.4-0.3c0,0,0.1,0.1,0.1,0.1l1.6,1.6c0.3,0.3,0.7,0.3,0.9,0C7.4,7.4,7.4,7,7.1,6.7z M0.7,3.1c0-1.4,1.1-2.5,2.5-2.5
		s2.5,1.1,2.5,2.5S4.5,5.6,3.1,5.6C1.8,5.6,0.7,4.5,0.7,3.1z"/>
</g>
</svg>
